<!DOCTYPE svg PUBLIC "-//W3C//DTD SVG 1.1//EN" "https://www.w3.org/Graphics/SVG/1.1/DTD/svg11.dtd"><svg xmlns="http://www.w3.org/2000/svg" aria-label="Graph view" width="183" height="388"><g transform="translate(12,19.180992126464844)"><g class="nodes"><g class="node-container" transform="translate(78.1015625,19)"><g class="node anchor"><circle class="shape" x="-16.180992126464844" y="-9" r="26.180992126464844"/><text class="label"><tspan xml:space="preserve" text-anchor="middle" alignment-baseline="central">Start</tspan></text></g></g><g class="node-container" transform="translate(78.1015625,334)"><g class="node anchor"><circle class="shape" x="-12.1796875" y="-9" r="22.1796875"/><text class="label"><tspan xml:space="preserve" text-anchor="middle" alignment-baseline="central">End</tspan></text></g></g><g class="node-container" transform="translate(78.1015625,82)"><g class="node state Task SucceededState" aria-label="State serializeImageData" data-virtual-tab-id="13" tabindex="0" transform="translate(-8)"><rect class="shape step-status" rx="5" ry="5" x="-70.1015625" y="-19" width="156.203125" height="38"/><text class="label" xml:space="preserve" text-anchor="middle" alignment-baseline="central">serializeImageData</text><svg class="icon" width="16" height="16" x="65.1015625" y="-8"><circle stroke="black" stroke-width="1" fill="none" cx="8" cy="8" r="7"/><path stroke="black" stroke-width="1" fill="none" d="m5 8 2 2 3.521-3.521"/></svg></g></g><g class="node-container" transform="translate(78.1015625,145)"><g class="node state Task SucceededState" aria-label="State classifyImageData" data-virtual-tab-id="14" tabindex="-1" transform="translate(-8)"><rect class="shape step-status" rx="5" ry="5" x="-67.671875" y="-19" width="151.34375" height="38"/><text class="label" xml:space="preserve" text-anchor="middle" alignment-baseline="central">classifyImageData</text><svg class="icon" width="16" height="16" x="62.671875" y="-8"><circle stroke="black" stroke-width="1" fill="none" cx="8" cy="8" r="7"/><path stroke="black" stroke-width="1" fill="none" d="m5 8 2 2 3.521-3.521"/></svg></g></g><g class="node-container" transform="translate(78.1015625,208)"><g class="node state Task selected CaughtErrorState" aria-label="State filterInferences" data-virtual-tab-id="15" tabindex="-1" transform="translate(-8)"><rect class="shape step-status" rx="5" ry="5" x="-58.4296875" y="-19" width="132.859375" height="38"/><text class="label" xml:space="preserve" text-anchor="middle" alignment-baseline="central">filterInferences</text><svg class="icon" width="16" height="16" x="53.4296875" y="-8"><path stroke="black" stroke-width="1" fill="none" d="m8 1 7 14H1L8 1z"/><path stroke="black" stroke-width="1" fill="none" d="M7.99 12H8v.01h-.01zM8 6v4"/></svg></g></g><g class="node-container" transform="translate(116.609375,271)"><g class="node state Succeed SucceededState" aria-label="State Success" data-virtual-tab-id="16" tabindex="-1" transform="translate(-8)"><rect class="shape step-status" rx="5" ry="5" x="-34.015625" y="-19" width="84.03125" height="38"/><text class="label" xml:space="preserve" text-anchor="middle" alignment-baseline="central">Success</text><svg class="icon" width="16" height="16" x="29.015625" y="-8"><circle stroke="black" stroke-width="1" fill="none" cx="8" cy="8" r="7"/><path stroke="black" stroke-width="1" fill="none" d="m5 8 2 2 3.521-3.521"/></svg></g></g></g><g class="edges"><g class="edge"><path class="path" marker-end="url(#arrowhead19)" d="M78.102,101L78.102,103.083C78.102,105.167,78.102,109.333,78.102,113.5C78.102,117.667,78.102,121.833,78.102,123.917L78.102,126" style="fill: none;"/><defs><marker id="arrowhead19" viewBox="0 0 10 10" refX="9" refY="5" markerUnits="strokeWidth" markerWidth="8" markerHeight="6" orient="auto"><path d="M 0 0 L 10 5 L 0 10 z"/></marker></defs></g><g class="edge"><path class="path" marker-end="url(#arrowhead20)" d="M78.102,45.181L78.102,46.067C78.102,46.954,78.102,48.727,78.102,51.697C78.102,54.667,78.102,58.833,78.102,60.917L78.102,63" style="fill: none;"/><defs><marker id="arrowhead20" viewBox="0 0 10 10" refX="9" refY="5" markerUnits="strokeWidth" markerWidth="8" markerHeight="6" orient="auto"><path d="M 0 0 L 10 5 L 0 10 z"/></marker></defs></g><g class="edge"><path class="path" marker-end="url(#arrowhead21)" d="M78.102,164L78.102,166.083C78.102,168.167,78.102,172.333,78.102,176.5C78.102,180.667,78.102,184.833,78.102,186.917L78.102,189" style="fill: none;"/><defs><marker id="arrowhead21" viewBox="0 0 10 10" refX="9" refY="5" markerUnits="strokeWidth" markerWidth="8" markerHeight="6" orient="auto"><path d="M 0 0 L 10 5 L 0 10 z"/></marker></defs></g><g class="edge"><path class="path" marker-end="url(#arrowhead22)" d="M101.328,227L103.875,229.083C106.422,231.167,111.516,235.333,114.063,239.5C116.609,243.667,116.609,247.833,116.609,249.917L116.609,252" style="fill: none;"/><defs><marker id="arrowhead22" viewBox="0 0 10 10" refX="9" refY="5" markerUnits="strokeWidth" markerWidth="8" markerHeight="6" orient="auto"><path d="M 0 0 L 10 5 L 0 10 z"/></marker></defs></g><g class="edge"><path class="path" marker-end="url(#arrowhead23)" d="M54.875,227L52.328,229.083C49.781,231.167,44.687,235.333,42.141,242.667C39.594,250,39.594,260.5,39.594,271C39.594,281.5,39.594,292,43.15,300.159C46.707,308.319,53.821,314.138,57.377,317.047L60.934,319.957" style="fill: none;"/><defs><marker id="arrowhead23" viewBox="0 0 10 10" refX="9" refY="5" markerUnits="strokeWidth" markerWidth="8" markerHeight="6" orient="auto"><path d="M 0 0 L 10 5 L 0 10 z"/></marker></defs></g><g class="edge"><path class="path" marker-end="url(#arrowhead24)" d="M116.609,290L116.609,292.083C116.609,294.167,116.609,298.333,113.053,303.326C109.496,308.319,102.383,314.138,98.826,317.047L95.269,319.957" style="fill: none;"/><defs><marker id="arrowhead24" viewBox="0 0 10 10" refX="9" refY="5" markerUnits="strokeWidth" markerWidth="8" markerHeight="6" orient="auto"><path d="M 0 0 L 10 5 L 0 10 z"/></marker></defs></g></g></g><style xmlns="http://www.w3.org/1999/xhtml">
  .link &gt; rect {
    fill: #0073BB;
  }

  .link .label {
    fill: #FFFFFF;
  }

  .node &gt; .shape {
    stroke: #555555;
    stroke-width: 0.6px;
    fill: #FFFFFF;
  }

  path {
    stroke: #555;
    background-color: #555;
    stroke-width: 1px;
  }

  .node.state.NotYetStarted &gt; .shape,
  .node.state.Container &gt; .shape {
    stroke-dasharray: 5 2;
  }

  .node.state.FailedState &gt; .shape,
  rect.legend.FailedState {
    fill: #DE322F;
  }

  .node.state.CaughtErrorState &gt; .shape,
  rect.legend.CaughtErrorState {
    fill: #FFA500;
  }

  .node.state.SucceededState &gt; .shape,
  rect.legend.SucceededState {
    fill: #2BD62E;
  }

  .node.state.InProgressState &gt; .shape,
  rect.legend.InProgressState {
    fill: #53c9ed;
  }

  .node.state.CancelledState &gt; .shape,
  rect.legend.CancelledState {
    fill: #dddddd;
  }

  .node.anchor &gt; .shape {
    fill: #FFDA75;
  }

  .node.state.hovered:not(.selected):not(.NotYetStarted) &gt; .shape,
  .node.selected &gt; .shape {
    stroke: #555555;
    stroke-width: 2px;
  }

  .node.state.Container.Failed &gt; .shape {
    fill: #EE9592;
  }

  .node.state.Container.CaughtError &gt; .shape {
    fill: #FFD27F;
  }

  .node.state.Container.Succeeded &gt; .shape {
    fill: #91EA9A;
  }

  .node.state.Container.InProgress &gt; .shape {
    fill :#A9E4F7;
  }

  .node.state.Container.Cancelled &gt; .shape {
    fill: #EEEEEE;
  }

  marker {
    fill: #555555;
  }

  .node.anchor,
  .node.state.NotYetStarted {
    cursor: default;
  }

  .node.state {
    cursor: default;
  }

  tspan .label {
    font-weight: normal;
    font-size: 12px;
    text-shadow: none;
  }
</style></svg>